<?xml version="1.0" encoding="UTF-8"?>
<svg id="_레이어_2" data-name="레이어 2" xmlns="http://www.w3.org/2000/svg" xmlns:xlink="http://www.w3.org/1999/xlink" viewBox="0 0 523.81 99.94">
  <defs>
    <style>
      .cls-1 {
        fill: #6b67e9;
      }

      .cls-2 {
        fill: url(#_무제_그라디언트_8-2);
      }

      .cls-3 {
        fill: url(#_무제_그라디언트_8-3);
      }

      .cls-4 {
        fill: url(#_무제_그라디언트_8-4);
      }

      .cls-5 {
        fill: url(#_무제_그라디언트_8);
      }
    </style>
    <linearGradient id="_무제_그라디언트_8" data-name="무제 그라디언트 8" x1="457.83" y1="49.97" x2="523.81" y2="49.97" gradientUnits="userSpaceOnUse">
      <stop offset="0" stop-color="#ced3f8"/>
      <stop offset="1" stop-color="#6b67e9"/>
    </linearGradient>
    <linearGradient id="_무제_그라디언트_8-2" data-name="무제 그라디언트 8" y1="74.95" x2="494.54" y2="74.95" xlink:href="#_무제_그라디언트_8"/>
    <linearGradient id="_무제_그라디언트_8-3" data-name="무제 그라디언트 8" x1="82.26" y1="66.98" x2="148.24" y2="66.98" gradientTransform="translate(148.24 116.95) rotate(-180)" xlink:href="#_무제_그라디언트_8"/>
    <linearGradient id="_무제_그라디언트_8-4" data-name="무제 그라디언트 8" x1="82.26" y1="91.96" x2="118.97" y2="91.96" gradientTransform="translate(148.24 116.95) rotate(-180)" xlink:href="#_무제_그라디언트_8"/>
  </defs>
  <g id="_레이어_1-2" data-name="레이어 1">
    <g>
      <g>
        <path class="cls-5" d="M519.12,38.65l-11.32-11.32-22.64-22.64c-6.25-6.25-16.39-6.25-22.64,0h0c-6.25,6.25-6.25,16.39,0,22.64l22.64,22.64-22.64,22.64c-6.25,6.25-6.25,16.39,0,22.64h0c6.25,6.25,16.39,6.25,22.64,0l22.64-22.64,11.32-11.32c6.25-6.25,6.25-16.39,0-22.64Z"/>
        <path class="cls-2" d="M462.52,72.61c-6.25,6.25-6.25,16.39,0,22.64h0c6.25,6.25,16.39,6.25,22.64,0h0c12.5-12.5,12.5-32.78,0-45.28h0s-22.64,22.64-22.64,22.64Z"/>
      </g>
      <g>
        <path class="cls-3" d="M4.69,61.29l11.32,11.32,22.64,22.64c6.25,6.25,16.39,6.25,22.64,0h0c6.25-6.25,6.25-16.39,0-22.64l-22.64-22.64,22.64-22.64c6.25-6.25,6.25-16.39,0-22.64h0c-6.25-6.25-16.39-6.25-22.64,0L16.01,27.33l-11.32,11.32c-6.25,6.25-6.25,16.39,0,22.64Z"/>
        <path class="cls-4" d="M61.29,27.33c6.25-6.25,6.25-16.39,0-22.64h0c-6.25-6.25-16.39-6.25-22.64,0h0c-12.5,12.5-12.5,32.78,0,45.28h0s22.64-22.64,22.64-22.64Z"/>
      </g>
      <g>
        <path class="cls-1" d="M130.02,35.05v32.79c0,3.75-.4,6.97-1.2,9.68-.8,2.7-2.08,4.93-3.85,6.7-1.76,1.76-4.07,3.07-6.93,3.93-2.85,.85-6.4,1.28-10.65,1.28-3.89,0-7.36-.54-10.42-1.63-3.06-1.09-5.42-2.5-7.07-4.22-1.65-1.72-2.48-3.49-2.48-5.31,0-1.38,.47-2.5,1.41-3.37,.94-.87,2.07-1.3,3.39-1.3,1.65,0,3.1,.73,4.34,2.19,.61,.74,1.23,1.5,1.88,2.25,.65,.76,1.36,1.41,2.15,1.94,.79,.54,1.73,.94,2.83,1.2,1.1,.26,2.37,.39,3.8,.39,2.92,0,5.19-.41,6.8-1.22,1.61-.81,2.74-1.95,3.39-3.41,.65-1.46,1.03-3.03,1.14-4.69,.11-1.67,.19-4.35,.25-8.04-1.74,2.43-3.74,4.27-6.02,5.54-2.27,1.27-4.98,1.9-8.13,1.9-3.78,0-7.08-.96-9.9-2.89-2.83-1.93-5-4.63-6.51-8.1-1.52-3.47-2.27-7.48-2.27-12.03,0-3.39,.46-6.45,1.39-9.18,.92-2.73,2.24-5.03,3.95-6.91,1.71-1.87,3.68-3.29,5.91-4.24s4.69-1.43,7.36-1.43c3.2,0,5.97,.61,8.31,1.84,2.34,1.23,4.52,3.15,6.53,5.77v-1.53c0-1.96,.48-3.47,1.45-4.55,.96-1.08,2.21-1.61,3.72-1.61,2.18,0,3.62,.71,4.34,2.13,.72,1.42,1.08,3.47,1.08,6.14Zm-32.71,14.31c0,4.58,1,8.04,3,10.38,2,2.34,4.58,3.52,7.75,3.52,1.87,0,3.65-.5,5.31-1.51,1.67-1.01,3.02-2.52,4.07-4.55,1.05-2.03,1.57-4.49,1.57-7.38,0-4.6-1.01-8.19-3.04-10.75s-4.69-3.85-8-3.85-5.81,1.23-7.75,3.68c-1.94,2.45-2.92,5.94-2.92,10.46Z"/>
        <path class="cls-1" d="M170.83,52.5h-22.08c.03,2.56,.54,4.82,1.55,6.78,1.01,1.96,2.34,3.43,4.01,4.42,1.67,.99,3.51,1.49,5.52,1.49,1.35,0,2.58-.16,3.7-.48,1.12-.32,2.2-.81,3.25-1.49,1.05-.67,2.01-1.4,2.89-2.17,.88-.77,2.03-1.82,3.43-3.14,.58-.5,1.41-.74,2.48-.74,1.16,0,2.09,.32,2.81,.95,.72,.63,1.07,1.53,1.07,2.69,0,1.02-.4,2.21-1.2,3.58-.8,1.36-2.01,2.67-3.62,3.93-1.61,1.25-3.64,2.29-6.08,3.12-2.44,.83-5.25,1.24-8.42,1.24-7.25,0-12.89-2.07-16.91-6.2-4.03-4.13-6.04-9.74-6.04-16.83,0-3.34,.5-6.43,1.49-9.28,.99-2.85,2.44-5.3,4.34-7.34,1.9-2.04,4.24-3.6,7.03-4.69,2.78-1.09,5.87-1.63,9.26-1.63,4.41,0,8.19,.93,11.35,2.79,3.16,1.86,5.52,4.27,7.09,7.22,1.57,2.95,2.36,5.95,2.36,9.01,0,2.84-.81,4.68-2.44,5.52-1.63,.84-3.91,1.26-6.86,1.26Zm-22.08-6.41h20.47c-.28-3.86-1.32-6.75-3.12-8.66-1.81-1.92-4.18-2.87-7.13-2.87s-5.12,.97-6.93,2.92c-1.81,1.94-2.9,4.82-3.29,8.62Z"/>
        <path class="cls-1" d="M199.9,33.03v1.36c1.98-2.62,4.16-4.54,6.51-5.77s5.07-1.84,8.13-1.84,5.64,.65,7.98,1.94c2.34,1.3,4.09,3.13,5.25,5.5,.74,1.38,1.23,2.87,1.45,4.47,.22,1.6,.33,3.64,.33,6.12v21.01c0,2.26-.52,3.97-1.55,5.13-1.03,1.16-2.38,1.74-4.03,1.74s-3.05-.59-4.09-1.78c-1.05-1.18-1.57-2.88-1.57-5.09v-18.81c0-3.72-.52-6.57-1.55-8.54-1.03-1.97-3.09-2.96-6.18-2.96-2.01,0-3.85,.6-5.5,1.8-1.65,1.2-2.87,2.85-3.64,4.94-.55,1.68-.83,4.82-.83,9.43v14.14c0,2.29-.53,4-1.59,5.15-1.06,1.14-2.43,1.72-4.11,1.72s-2.96-.59-4.01-1.78c-1.05-1.18-1.57-2.88-1.57-5.09V33.19c0-2.15,.47-3.76,1.41-4.82,.94-1.06,2.22-1.59,3.85-1.59,.99,0,1.89,.23,2.69,.7,.8,.47,1.44,1.17,1.92,2.11,.48,.94,.72,2.08,.72,3.43Z"/>
        <path class="cls-1" d="M272.31,52.5h-22.08c.03,2.56,.54,4.82,1.55,6.78,1.01,1.96,2.34,3.43,4.01,4.42,1.67,.99,3.51,1.49,5.52,1.49,1.35,0,2.58-.16,3.7-.48,1.12-.32,2.2-.81,3.25-1.49,1.05-.67,2.01-1.4,2.89-2.17,.88-.77,2.03-1.82,3.43-3.14,.58-.5,1.41-.74,2.48-.74,1.16,0,2.09,.32,2.81,.95,.72,.63,1.07,1.53,1.07,2.69,0,1.02-.4,2.21-1.2,3.58s-2.01,2.67-3.62,3.93c-1.61,1.25-3.64,2.29-6.08,3.12-2.44,.83-5.24,1.24-8.41,1.24-7.25,0-12.89-2.07-16.91-6.2-4.03-4.13-6.04-9.74-6.04-16.83,0-3.34,.5-6.43,1.49-9.28,.99-2.85,2.44-5.3,4.34-7.34,1.9-2.04,4.24-3.6,7.03-4.69,2.78-1.09,5.87-1.63,9.26-1.63,4.41,0,8.19,.93,11.35,2.79s5.52,4.27,7.09,7.22c1.57,2.95,2.36,5.95,2.36,9.01,0,2.84-.81,4.68-2.44,5.52-1.63,.84-3.92,1.26-6.87,1.26Zm-22.08-6.41h20.47c-.28-3.86-1.32-6.75-3.12-8.66-1.81-1.92-4.18-2.87-7.13-2.87s-5.12,.97-6.93,2.92c-1.81,1.94-2.9,4.82-3.29,8.62Z"/>
        <path class="cls-1" d="M302.33,56.39v9.43c0,2.29-.54,4-1.61,5.15s-2.44,1.72-4.09,1.72-2.96-.58-4.01-1.74c-1.05-1.16-1.57-2.87-1.57-5.13v-31.43c0-5.07,1.83-7.61,5.5-7.61,1.88,0,3.23,.59,4.05,1.78,.83,1.19,1.28,2.94,1.36,5.25,1.35-2.32,2.74-4.07,4.16-5.25,1.42-1.19,3.31-1.78,5.69-1.78s4.67,.59,6.91,1.78c2.23,1.19,3.35,2.76,3.35,4.71,0,1.38-.48,2.52-1.43,3.41-.95,.9-1.98,1.34-3.08,1.34-.41,0-1.41-.25-3-.77-1.59-.51-2.98-.77-4.2-.77-1.65,0-3,.43-4.05,1.3s-1.86,2.16-2.44,3.87c-.58,1.71-.98,3.74-1.2,6.1-.22,2.36-.33,5.23-.33,8.62Z"/>
        <path class="cls-1" d="M333.92,21.53c-1.57,0-2.92-.48-4.03-1.45-1.12-.96-1.67-2.33-1.67-4.09,0-1.6,.57-2.92,1.72-3.95,1.14-1.03,2.47-1.55,3.99-1.55s2.76,.47,3.89,1.41c1.13,.94,1.7,2.3,1.7,4.09s-.55,3.09-1.65,4.07c-1.1,.98-2.41,1.47-3.93,1.47Zm5.58,11.66v32.63c0,2.26-.54,3.97-1.61,5.13-1.08,1.16-2.44,1.74-4.09,1.74s-3-.59-4.03-1.78c-1.03-1.18-1.55-2.88-1.55-5.09V33.52c0-2.23,.52-3.91,1.55-5.04,1.03-1.13,2.38-1.7,4.03-1.7s3.02,.57,4.09,1.7c1.08,1.13,1.61,2.7,1.61,4.71Z"/>
        <path class="cls-1" d="M391.65,58.7c0,1.41-.42,2.91-1.26,4.51-.84,1.6-2.12,3.12-3.85,4.57s-3.89,2.61-6.51,3.49-5.57,1.32-8.85,1.32c-6.98,0-12.42-2.03-16.33-6.1-3.92-4.07-5.87-9.52-5.87-16.35,0-4.63,.9-8.73,2.69-12.28,1.79-3.56,4.38-6.31,7.77-8.25s7.44-2.92,12.16-2.92c2.92,0,5.6,.43,8.04,1.28,2.44,.85,4.51,1.96,6.2,3.31,1.7,1.35,2.99,2.79,3.89,4.32,.9,1.53,1.34,2.96,1.34,4.28s-.5,2.5-1.51,3.43c-1.01,.94-2.23,1.41-3.66,1.41-.94,0-1.72-.24-2.34-.72-.62-.48-1.32-1.26-2.09-2.34-1.38-2.09-2.82-3.67-4.32-4.71-1.5-1.05-3.41-1.57-5.73-1.57-3.34,0-6.02,1.3-8.06,3.91-2.04,2.6-3.06,6.17-3.06,10.69,0,2.12,.26,4.07,.79,5.85,.52,1.78,1.28,3.29,2.27,4.55,.99,1.25,2.19,2.21,3.6,2.85,1.41,.65,2.95,.97,4.63,.97,2.26,0,4.2-.52,5.81-1.57,1.61-1.05,3.04-2.65,4.28-4.8,.69-1.27,1.43-2.26,2.23-2.98,.8-.72,1.78-1.08,2.94-1.08,1.38,0,2.52,.52,3.43,1.57,.91,1.05,1.36,2.16,1.36,3.35Z"/>
        <path class="cls-1" d="M437.84,57.92c0,3.12-.76,5.78-2.27,8-1.52,2.22-3.76,3.9-6.72,5.04-2.96,1.14-6.57,1.72-10.81,1.72s-7.53-.62-10.42-1.86c-2.89-1.24-5.03-2.79-6.41-4.65-1.38-1.86-2.07-3.73-2.07-5.6,0-1.24,.44-2.3,1.32-3.18s2-1.32,3.35-1.32c1.18,0,2.09,.29,2.73,.87,.63,.58,1.24,1.39,1.82,2.44,1.16,2.01,2.54,3.51,4.16,4.51,1.61,.99,3.81,1.49,6.6,1.49,2.26,0,4.11-.5,5.56-1.51,1.45-1.01,2.17-2.16,2.17-3.45,0-1.98-.75-3.43-2.25-4.34-1.5-.91-3.98-1.78-7.42-2.6-3.89-.96-7.05-1.98-9.49-3.04-2.44-1.06-4.39-2.46-5.85-4.2s-2.19-3.87-2.19-6.41c0-2.26,.67-4.4,2.03-6.41,1.35-2.01,3.34-3.62,5.97-4.82s5.81-1.8,9.53-1.8c2.92,0,5.55,.3,7.88,.91,2.33,.61,4.27,1.42,5.83,2.44,1.56,1.02,2.74,2.15,3.56,3.39,.81,1.24,1.22,2.45,1.22,3.64,0,1.3-.43,2.36-1.3,3.18-.87,.83-2.1,1.24-3.7,1.24-1.16,0-2.14-.33-2.96-.99-.81-.66-1.74-1.65-2.79-2.98-.86-1.1-1.86-1.98-3.02-2.65-1.16-.66-2.73-.99-4.71-.99s-3.74,.43-5.09,1.3c-1.35,.87-2.03,1.95-2.03,3.25,0,1.19,.5,2.16,1.49,2.92,.99,.76,2.33,1.39,4.01,1.88,1.68,.5,4,1.1,6.95,1.82,3.5,.85,6.36,1.88,8.58,3.06,2.22,1.19,3.9,2.58,5.04,4.2,1.14,1.61,1.72,3.45,1.72,5.52Z"/>
      </g>
    </g>
  </g>
</svg>